<svg width="41" height="40" viewBox="0 0 41 40" fill="none" xmlns="http://www.w3.org/2000/svg">
<path d="M32 20.833C32.8 20.833 33.445 21.478 34.7333 22.7663L35.0666 23.0997C36.355 24.388 37 25.033 37 25.833C37 26.633 36.355 27.278 35.0666 28.5663L34.7333 28.8997C33.445 30.188 32.8 30.833 32 30.833C31.2 30.833 30.555 30.188 29.2666 28.8997L28.9333 28.5663C27.645 27.278 27 26.633 27 25.833C27 25.033 27.645 24.388 28.9333 23.0997L29.2666 22.7663C30.555 21.478 31.2 20.833 32 20.833ZM32 20.833V15.833C32 12.6897 32 11.1197 31.025 10.143C30.0483 9.16634 28.4783 9.16634 25.3366 9.16634H23.67M10.3433 9.16634H3.67995M3.67995 9.16634V3.33301M3.67995 9.16634V19.9997C3.67995 21.8397 3.42662 24.113 5.15995 25.2713C5.99995 25.833 7.16995 25.833 9.50995 25.833M23.67 25.833H27.0033M37 36.6663C35.4466 36.6663 34.67 36.6663 34.0583 36.4497C33.2416 36.158 32.5916 35.603 32.2533 34.903C32 34.378 32 33.7113 32 32.3813V31.6663M10.3333 9.16634C10.3333 7.60801 10.3333 6.82967 10.6683 6.24967C10.8877 5.86966 11.2033 5.55409 11.5833 5.33467C12.1633 4.99967 12.9416 4.99967 14.5 4.99967H19.5C21.0583 4.99967 21.8366 4.99967 22.4166 5.33467C22.7966 5.55409 23.1122 5.86966 23.3316 6.24967C23.6666 6.82967 23.6666 7.60801 23.6666 9.16634C23.6666 10.7247 23.6666 11.503 23.3316 12.083C23.1122 12.463 22.7966 12.7786 22.4166 12.998C21.8366 13.333 21.0583 13.333 19.5 13.333H14.5C12.9416 13.333 12.1633 13.333 11.5833 12.998C11.2033 12.7786 10.8877 12.463 10.6683 12.083C10.3333 11.503 10.3333 10.7247 10.3333 9.16634ZM10.3333 25.833C10.3333 24.2747 10.3333 23.4963 10.6683 22.9163C10.8877 22.5363 11.2033 22.2208 11.5833 22.0013C12.1633 21.6663 12.9416 21.6663 14.5 21.6663H19.5C21.0583 21.6663 21.8366 21.6663 22.4166 22.0013C22.7966 22.2208 23.1122 22.5363 23.3316 22.9163C23.6666 23.4963 23.6666 24.2747 23.6666 25.833C23.6666 27.3913 23.6666 28.1697 23.3316 28.7497C23.1122 29.1297 22.7966 29.4453 22.4166 29.6647C21.8366 29.9997 21.0583 29.9997 19.5 29.9997H14.5C12.9416 29.9997 12.1633 29.9997 11.5833 29.6647C11.2033 29.4453 10.8877 29.1297 10.6683 28.7497C10.3333 28.1697 10.3333 27.3913 10.3333 25.833Z" stroke="#001AFF" stroke-width="2" stroke-linecap="round" stroke-linejoin="round"/>
</svg>
