<svg width="40" height="40" viewBox="0 0 40 40" fill="none" xmlns="http://www.w3.org/2000/svg">
<path d="M29.13 13.3334H29.1667C30.9371 13.3319 32.6509 13.9567 34.0049 15.0972C35.3589 16.2378 36.2658 17.8205 36.5652 19.5654C36.8645 21.3102 36.5369 23.1047 35.6404 24.6313C34.744 26.1579 33.3364 27.3182 31.6667 27.9068M29.13 13.3334C29.1534 13.059 29.1656 12.7812 29.1667 12.5001C29.1704 10.1354 28.26 7.86077 26.6259 6.15151C24.9918 4.44225 22.7604 3.43061 20.3979 3.32798C18.0354 3.22535 15.7247 4.03967 13.9485 5.60077C12.1723 7.16188 11.0682 9.349 10.8667 11.7051M29.13 13.3334C28.9623 15.1692 28.245 16.9116 27.0717 18.3334M10.8667 11.7051C9.02847 11.8813 7.30082 12.6632 5.95513 13.9278C4.60944 15.1924 3.72192 16.8682 3.43198 18.692C3.14204 20.5158 3.46609 22.3842 4.35325 24.0038C5.24041 25.6234 6.64041 26.9025 8.33338 27.6401M10.8667 11.7051C11.13 11.6796 11.3967 11.6668 11.6667 11.6668C13.5434 11.6668 15.275 12.2868 16.6667 13.3334M30.4167 35.4168L26.6667 31.6668V28.3334M9.58338 35.4168L13.3334 31.6668V28.3334M20 35.4168V28.3334M30.4167 34.1668C30.0852 34.1668 29.7672 34.2985 29.5328 34.5329C29.2984 34.7673 29.1667 35.0853 29.1667 35.4168C29.1667 35.7483 29.2984 36.0662 29.5328 36.3007C29.7672 36.5351 30.0852 36.6668 30.4167 36.6668C30.7482 36.6668 31.0662 36.5351 31.3006 36.3007C31.535 36.0662 31.6667 35.7483 31.6667 35.4168C31.6667 35.0853 31.535 34.7673 31.3006 34.5329C31.0662 34.2985 30.7482 34.1668 30.4167 34.1668ZM9.58338 34.1668C9.9149 34.1668 10.2328 34.2985 10.4673 34.5329C10.7017 34.7673 10.8334 35.0853 10.8334 35.4168C10.8334 35.7483 10.7017 36.0662 10.4673 36.3007C10.2328 36.5351 9.9149 36.6668 9.58338 36.6668C9.25186 36.6668 8.93391 36.5351 8.69949 36.3007C8.46507 36.0662 8.33338 35.7483 8.33338 35.4168C8.33338 35.0853 8.46507 34.7673 8.69949 34.5329C8.93391 34.2985 9.25186 34.1668 9.58338 34.1668ZM20 34.1668C19.6685 34.1668 19.3506 34.2985 19.1162 34.5329C18.8817 34.7673 18.75 35.0853 18.75 35.4168C18.75 35.7483 18.8817 36.0662 19.1162 36.3007C19.3506 36.5351 19.6685 36.6668 20 36.6668C20.3316 36.6668 20.6495 36.5351 20.8839 36.3007C21.1183 36.0662 21.25 35.7483 21.25 35.4168C21.25 35.0853 21.1183 34.7673 20.8839 34.5329C20.6495 34.2985 20.3316 34.1668 20 34.1668Z" stroke="#001AFF" stroke-width="2" stroke-linecap="round" stroke-linejoin="round"/>
</svg>
