<svg width="41" height="40" viewBox="0 0 41 40" fill="none" xmlns="http://www.w3.org/2000/svg">
<path d="M34 16.8797C34 10.493 34 7.30134 32.0467 5.31634C30.0933 3.33134 26.9517 3.33301 20.6667 3.33301H17.3333C11.0483 3.33301 7.905 3.33301 5.95333 5.31634C4.00167 7.29967 4 10.493 4 16.8797C4 23.2663 4 26.458 5.95333 28.443C6.73667 29.238 7.71 29.7147 9 29.9997" stroke="#001AFF" stroke-width="2" stroke-linecap="round" stroke-linejoin="round"/>
<path d="M37.3333 29.166C37.3333 26.041 37.3333 24.4793 36.5383 23.3827C36.2814 23.029 35.9703 22.718 35.6167 22.461C34.52 21.666 32.9583 21.666 29.8333 21.666H21.5C18.375 21.666 16.8133 21.666 15.7167 22.461C15.363 22.718 15.052 23.029 14.795 23.3827C14 24.481 14 26.0427 14 29.166C14 32.2893 14 33.8527 14.795 34.9493C15.0525 35.3031 15.3641 35.6142 15.7183 35.871C16.8133 36.666 18.375 36.666 21.5 36.666H29.8333C32.9583 36.666 34.52 36.666 35.6167 35.871C35.9703 35.614 36.2814 35.303 36.5383 34.9493C37.3333 33.8527 37.3333 32.291 37.3333 29.166Z" stroke="#001AFF" stroke-width="2" stroke-linecap="round" stroke-linejoin="round"/>
<path d="M28.1668 26.6667L29.7002 27.9883C30.3452 28.5433 30.6668 28.8217 30.6668 29.1667C30.6668 29.5117 30.3452 29.79 29.7002 30.345L28.1668 31.6667M23.1668 26.6667L21.6335 27.9883C20.9885 28.5433 20.6668 28.8217 20.6668 29.1667C20.6668 29.5117 20.9885 29.79 21.6335 30.345L23.1668 31.6667M4.8335 10H33.1668" stroke="#001AFF" stroke-width="2" stroke-linecap="round" stroke-linejoin="round"/>
</svg>
