<svg width="40" height="41" viewBox="0 0 40 41" fill="none" xmlns="http://www.w3.org/2000/svg">
<path d="M19.9998 23.8327C21.8408 23.8327 23.3332 22.3403 23.3332 20.4993C23.3332 18.6584 21.8408 17.166 19.9998 17.166C18.1589 17.166 16.6665 18.6584 16.6665 20.4993C16.6665 22.3403 18.1589 23.8327 19.9998 23.8327Z" stroke="#001AFF" stroke-width="2" stroke-linecap="round" stroke-linejoin="round"/>
<path d="M6.6666 30.5013C4.49822 27.6182 3.32808 24.1072 3.33327 20.4997C3.33327 11.2947 10.7949 3.83301 19.9999 3.83301C29.2049 3.83301 36.6666 11.2947 36.6666 20.4997C36.6666 24.253 35.4266 27.7163 33.3333 30.5013" stroke="#001AFF" stroke-width="2" stroke-linecap="round" stroke-linejoin="round"/>
<path d="M12.5467 27.1659C11.2597 25.7271 10.4166 23.9465 10.1193 22.0391C9.82201 20.1317 10.0832 18.179 10.8712 16.4167C11.6593 14.6544 12.9406 13.1579 14.5605 12.1079C16.1804 11.0578 18.0696 10.499 20 10.499C21.9305 10.499 23.8197 11.0578 25.4395 12.1079C27.0594 13.1579 28.3407 14.6544 29.1288 16.4167C29.9169 18.179 30.178 20.1317 29.8807 22.0391C29.5834 23.9465 28.7404 25.7271 27.4533 27.1659M20 23.8326V32.1659M22.1033 32.1659H17.8967C17.445 32.1659 17.2183 32.1659 17.0033 32.1959C16.5667 32.2576 16.1533 32.4126 15.795 32.6459C15.5634 32.8104 15.3444 32.992 15.14 33.1893C14.09 34.1309 13.565 34.6026 13.4267 34.9793C13.14 35.7626 13.5333 36.6143 14.3533 36.9859C14.7483 37.1659 15.4917 37.1659 16.9783 37.1659H23.0233C24.5067 37.1659 25.25 37.1659 25.6467 36.9859C26.4667 36.6143 26.86 35.7626 26.5733 34.9793C26.435 34.6026 25.91 34.1309 24.86 33.1893C24.6553 32.9919 24.4363 32.8097 24.205 32.6443C23.8395 32.4091 23.4272 32.2561 22.9967 32.1959C22.78 32.1659 22.555 32.1659 22.1033 32.1659Z" stroke="#001AFF" stroke-width="2" stroke-linecap="round" stroke-linejoin="round"/>
</svg>
