<svg width="41" height="41" viewBox="0 0 41 41" fill="none" xmlns="http://www.w3.org/2000/svg">
<path d="M14.8335 20.5C16.2142 20.5 17.3335 19.3807 17.3335 18C17.3335 16.6193 16.2142 15.5 14.8335 15.5C13.4528 15.5 12.3335 16.6193 12.3335 18C12.3335 19.3807 13.4528 20.5 14.8335 20.5Z" stroke="#001AFF" stroke-width="2" stroke-linecap="round" stroke-linejoin="round"/>
<path d="M24.8335 28.833C26.2142 28.833 27.3335 27.7137 27.3335 26.333C27.3335 24.9523 26.2142 23.833 24.8335 23.833C23.4528 23.833 22.3335 24.9523 22.3335 26.333C22.3335 27.7137 23.4528 28.833 24.8335 28.833Z" stroke="#001AFF" stroke-width="2" stroke-linecap="round" stroke-linejoin="round"/>
<path d="M31.5 15.5C32.8807 15.5 34 14.3807 34 13C34 11.6193 32.8807 10.5 31.5 10.5C30.1193 10.5 29 11.6193 29 13C29 14.3807 30.1193 15.5 31.5 15.5Z" stroke="#001AFF" stroke-width="2" stroke-linecap="round" stroke-linejoin="round"/>
<path d="M26.39 24.3267L30.6667 15.5M16.6383 19.78L22.6717 24.3267M5.66667 32.1667L13.3167 20.3M34 35.5H15.6667C10.1667 35.5 7.41667 35.5 5.70833 33.7917C4 32.0833 4 29.3333 4 23.8333V5.5" stroke="#001AFF" stroke-width="2" stroke-linecap="round" stroke-linejoin="round"/>
</svg>
