<svg width="171" height="34" viewBox="0 0 171 34" fill="none" xmlns="http://www.w3.org/2000/svg">
<g clip-path="url(#clip0_154_19)">
<path d="M32.1834 18.3341L16.4967 33.914H9.40302L25.0898 18.3341C25.8304 17.5985 25.8304 16.4083 25.0898 15.6727L9.40302 0.0927734L16.5087 0.104735L29.9734 13.4777L32.1834 15.6727C32.9241 16.4083 32.9241 17.5985 32.1834 18.3341ZM6.56676 17.0004L12.9499 10.6608L10.2521 7.9814C9.78239 7.5149 9.01763 7.5149 8.54793 7.9814L0.605197 15.876C-0.0210683 16.498 -0.0210683 17.5087 0.605197 18.1307L3.01993 20.529L8.55395 26.0253C9.02365 26.4918 9.78842 26.4918 10.2581 26.0253L12.9559 23.346L6.57278 17.0064L6.56676 17.0004Z" fill="#001AFF"/>
<path d="M47.6774 23.3995H57.1618V25.3672H47.3583C46.3587 25.3672 45.5518 24.5657 45.5518 23.5729V5.90577H47.6774V23.3995Z" fill="#0E2032"/>
<path d="M72.4149 11.4439V25.3672H70.2892V23.0825H70.0303C69.3378 24.6495 67.6758 25.6483 65.6645 25.6483H65.5501C62.3586 25.6483 60.6965 23.6806 60.6965 19.8529V11.432H62.8222V19.7632C62.8222 22.616 63.9724 23.6746 66.0138 23.6746H66.1282C68.3382 23.6746 70.2953 22.4485 70.2953 19.506V11.432H72.421L72.4149 11.4439Z" fill="#0E2032"/>
<path d="M82.5857 25.6542C78.9365 25.6542 76.4917 23.5969 76.4917 19.0634V17.7537C76.4917 13.1903 78.9606 11.1629 82.5857 11.1629H82.7303C85.9459 11.1629 88.3606 12.7597 88.6497 16.2166H86.524C86.265 13.9618 84.8018 13.0767 82.7303 13.0767H82.5857C80.1409 13.0767 78.5933 14.3626 78.5933 17.7596V19.0694C78.5933 22.4665 80.1469 23.7524 82.5857 23.7524H82.7303C84.7716 23.7524 86.2952 22.8672 86.524 20.6125H88.6497C88.3606 24.0634 85.9519 25.6662 82.7303 25.6662H82.5857V25.6542Z" fill="#0E2032"/>
<path d="M104.427 23.4593V25.3731H100.061C97.9051 25.3731 96.755 23.9736 96.755 21.9222V13.3638H91.2089V11.4499H98.8807V22.6639C98.8807 23.238 99.1095 23.4653 99.5973 23.4653H104.427V23.4593ZM96.6466 9.00978L94.9424 7.31722C94.7076 7.08398 94.7076 6.70719 94.9424 6.47394L96.6466 4.78138C96.8815 4.54813 97.2608 4.54813 97.4957 4.78138L99.1998 6.47394C99.4347 6.70719 99.4347 7.08398 99.1998 7.31722L97.4957 9.00978C97.2608 9.24303 96.8815 9.24303 96.6466 9.00978Z" fill="#0E2032"/>
<path d="M113.393 25.6542C110.376 25.6542 108.076 23.5729 108.076 19.0634V17.7237C108.076 13.2143 110.376 11.1629 113.303 11.1629H113.417C115.543 11.1629 117.006 12.2454 117.699 13.7286H117.988V5.91175H120.113V25.3731H118.018V23.0048H117.729C117.036 24.5478 115.603 25.6602 113.477 25.6602H113.393V25.6542ZM114.025 23.6866C116.121 23.6866 117.988 22.4904 117.988 18.9498V17.7776C117.988 14.3805 116.121 13.1245 114.025 13.1245H113.911C111.755 13.1245 110.208 14.3207 110.208 17.7776V18.9498C110.208 22.4306 111.761 23.6866 113.911 23.6866H114.025Z" fill="#0E2032"/>
<path d="M135.493 15.469C137.733 16.0132 138.913 17.4367 138.913 19.8948V20.122C138.913 23.4593 136.932 25.3731 133.313 25.3731H126.358V6.50384C126.358 6.1749 126.629 5.90577 126.96 5.90577H132.567C136.246 5.90577 138.197 7.7598 138.197 10.8399V11.1509C138.197 13.2083 137.276 14.548 135.493 15.2058V15.469ZM136.065 11.0193C136.065 8.90811 135.06 7.87942 132.561 7.87942H128.454V14.5001H132.561C135.06 14.5001 136.065 13.4714 136.065 11.2466V11.0193ZM136.782 19.7751C136.782 17.4905 135.716 16.4618 133.277 16.4618H128.448V23.3935H133.277C135.722 23.3935 136.782 22.3648 136.782 19.9665V19.7692V19.7751Z" fill="#0E2032"/>
<path d="M148.681 25.6542C145.032 25.6542 142.587 23.5969 142.587 19.0634V17.7537C142.587 13.1903 145.056 11.1629 148.681 11.1629H148.825C152.475 11.1629 154.919 13.2202 154.919 17.7537V19.0634C154.919 23.6268 152.45 25.6542 148.825 25.6542H148.681ZM148.825 23.7464C151.27 23.7464 152.818 22.4605 152.818 19.0634V17.7537C152.818 14.3566 151.264 13.0707 148.825 13.0707H148.681C146.236 13.0707 144.688 14.3566 144.688 17.7537V19.0634C144.688 22.4605 146.242 23.7464 148.681 23.7464H148.825Z" fill="#0E2032"/>
<path d="M157.563 25.3731L162.965 18.0407L157.936 11.4499H160.381L164.115 16.5276H164.404L168.137 11.4499H170.582L165.554 18.0407L170.955 25.3731H168.541L164.404 19.5778H164.115L159.948 25.3731H157.563Z" fill="#0E2032"/>
</g>
<defs>
<clipPath id="clip0_154_19">
<rect width="171" height="34" fill="white"/>
</clipPath>
</defs>
</svg>
