<svg width="41" height="40" viewBox="0 0 41 40" fill="none" xmlns="http://www.w3.org/2000/svg">
<path d="M20.5 8.33309C20.502 7.66648 20.3706 7.0062 20.1137 6.39109C19.8567 5.77598 19.4794 5.21847 19.0038 4.75133C18.5283 4.2842 17.9641 3.91688 17.3445 3.67098C16.7249 3.42507 16.0623 3.30555 15.3959 3.31945C14.7294 3.33334 14.0724 3.48036 13.4636 3.75187C12.8548 4.02338 12.3064 4.41389 11.8507 4.90043C11.395 5.38698 11.0412 5.95973 10.8101 6.58501C10.579 7.21029 10.4753 7.87547 10.505 8.54142C9.52538 8.79332 8.61588 9.26484 7.84543 9.92028C7.07498 10.5757 6.46377 11.3979 6.05812 12.3245C5.65246 13.2511 5.46298 14.2579 5.50402 15.2686C5.54507 16.2793 5.81557 17.2674 6.29504 18.1581C5.45201 18.843 4.78909 19.7235 4.36394 20.723C3.9388 21.7225 3.76431 22.8107 3.85565 23.8931C3.94699 24.9754 4.3014 26.019 4.88805 26.9331C5.4747 27.8472 6.27582 28.6042 7.22171 29.1381C7.1049 30.0418 7.17461 30.9599 7.42652 31.8356C7.67843 32.7114 8.1072 33.5262 8.68635 34.2297C9.2655 34.9332 9.98273 35.5105 10.7937 35.926C11.6048 36.3415 12.4923 36.5863 13.4017 36.6453C14.311 36.7043 15.2228 36.5763 16.0807 36.2691C16.9386 35.9619 17.7244 35.4821 18.3896 34.8594C19.0549 34.2366 19.5853 33.484 19.9483 32.6482C20.3113 31.8124 20.4991 30.911 20.5 29.9998V8.33309Z" stroke="#001AFF" stroke-width="2" stroke-linecap="round" stroke-linejoin="round"/>
<path d="M15.4999 21.6667C16.8992 21.1744 18.1211 20.2783 19.011 19.0917C19.901 17.905 20.4192 16.4811 20.4999 15M10.5049 8.54167C10.5379 9.34789 10.7655 10.1342 11.1683 10.8333M6.29492 18.16C6.59982 17.9117 6.92609 17.6908 7.26992 17.5M10.4999 30C9.35131 30.0005 8.22203 29.7043 7.22159 29.14M20.4999 21.6667H27.1666M20.4999 30H30.4999C31.384 30 32.2318 30.3512 32.8569 30.9763C33.4821 31.6014 33.8333 32.4493 33.8333 33.3333V35M20.4999 13.3333H33.8333M27.1666 13.3333V8.33333C27.1666 7.44928 27.5178 6.60143 28.1429 5.97631C28.768 5.35119 29.6159 5 30.4999 5" stroke="#001AFF" stroke-width="2" stroke-linecap="round" stroke-linejoin="round"/>
<path d="M27.1668 22.4997C27.6271 22.4997 28.0002 22.1266 28.0002 21.6663C28.0002 21.2061 27.6271 20.833 27.1668 20.833C26.7066 20.833 26.3335 21.2061 26.3335 21.6663C26.3335 22.1266 26.7066 22.4997 27.1668 22.4997Z" stroke="#001AFF" stroke-width="2" stroke-linecap="round" stroke-linejoin="round"/>
<path d="M30.5001 5.83268C30.9603 5.83268 31.3334 5.45959 31.3334 4.99935C31.3334 4.53911 30.9603 4.16602 30.5001 4.16602C30.0398 4.16602 29.6667 4.53911 29.6667 4.99935C29.6667 5.45959 30.0398 5.83268 30.5001 5.83268Z" stroke="#001AFF" stroke-width="2" stroke-linecap="round" stroke-linejoin="round"/>
<path d="M33.8333 35.8327C34.2936 35.8327 34.6667 35.4596 34.6667 34.9993C34.6667 34.5391 34.2936 34.166 33.8333 34.166C33.3731 34.166 33 34.5391 33 34.9993C33 35.4596 33.3731 35.8327 33.8333 35.8327Z" stroke="#001AFF" stroke-width="2" stroke-linecap="round" stroke-linejoin="round"/>
<path d="M33.8333 14.1667C34.2936 14.1667 34.6667 13.7936 34.6667 13.3333C34.6667 12.8731 34.2936 12.5 33.8333 12.5C33.3731 12.5 33 12.8731 33 13.3333C33 13.7936 33.3731 14.1667 33.8333 14.1667Z" stroke="#001AFF" stroke-width="2" stroke-linecap="round" stroke-linejoin="round"/>
</svg>
