<svg width="41" height="40" viewBox="0 0 41 40" fill="none" xmlns="http://www.w3.org/2000/svg">
<path d="M5.49996 3.33379V5.00045C5.49996 6.66712 8.8333 6.66712 8.8333 8.33379C8.8333 10.0005 5.49996 10.0005 5.49996 11.6671C5.49996 13.3338 8.8333 13.3338 8.8333 15.0005C8.8333 16.6671 5.49996 16.6671 5.49996 18.3338C5.49996 20.0005 8.8333 20.0005 8.8333 21.6671M30.5 10.0005H30.5166M10.5 30.0005H10.5166M35.2166 14.7171C35.836 14.0977 36.3274 13.3624 36.6626 12.5531C36.9978 11.7438 37.1703 10.8764 37.1703 10.0005C37.1703 9.12449 36.9978 8.2571 36.6626 7.44781C36.3274 6.63852 35.836 5.90319 35.2166 5.28379C34.5972 4.66438 33.8619 4.17305 33.0526 3.83783C32.2433 3.50261 31.3759 3.33008 30.5 3.33008C29.624 3.33008 28.7566 3.50261 27.9473 3.83783C27.138 4.17305 26.4027 4.66438 25.7833 5.28379L5.7833 25.2838C4.53236 26.5347 3.82959 28.2314 3.82959 30.0005C3.82959 30.8764 4.00212 31.7438 4.33734 32.5531C4.67256 33.3624 5.1639 34.0977 5.7833 34.7171C6.4027 35.3365 7.13804 35.8279 7.94732 36.1631C8.75661 36.4983 9.624 36.6708 10.5 36.6708C12.2691 36.6708 13.9657 35.9681 15.2166 34.7171L35.2166 14.7171Z" stroke="#001AFF" stroke-width="2" stroke-linecap="round" stroke-linejoin="round"/>
<path d="M30.5 19.4333V36.6667C32.2681 36.6667 33.9638 35.9643 35.214 34.714C36.4643 33.4638 37.1667 31.7681 37.1667 30V10" stroke="#001AFF" stroke-width="2" stroke-linecap="round" stroke-linejoin="round"/>
</svg>
