<svg width="41" height="40" viewBox="0 0 41 40" fill="none" xmlns="http://www.w3.org/2000/svg">
<path d="M12.5168 24.9997L4.93342 11.8997C4.60643 11.3345 4.45264 10.6857 4.49116 10.0338C4.52968 9.38196 4.7588 8.75578 5.15009 8.23301L7.83342 4.66634C8.14391 4.25235 8.54653 3.91634 9.00938 3.68492C9.47223 3.45349 9.98261 3.33301 10.5001 3.33301H30.5001C31.0176 3.33301 31.528 3.45349 31.9908 3.68492C32.4537 3.91634 32.8563 4.25235 33.1668 4.66634L35.8334 8.23301C36.2273 8.75409 36.4594 9.37941 36.5009 10.0313C36.5424 10.6832 36.3914 11.3329 36.0668 11.8997L28.4834 24.9997M18.8334 19.9997L9.03342 3.66634M22.1668 19.9997L31.9668 3.66634M13.8334 11.6663H27.1668" stroke="#001AFF" stroke-width="2" stroke-linecap="round" stroke-linejoin="round"/>
<path d="M20.5001 36.6667C25.1025 36.6667 28.8334 32.9357 28.8334 28.3333C28.8334 23.731 25.1025 20 20.5001 20C15.8977 20 12.1667 23.731 12.1667 28.3333C12.1667 32.9357 15.8977 36.6667 20.5001 36.6667Z" stroke="#001AFF" stroke-width="2" stroke-linecap="round" stroke-linejoin="round"/>
<path d="M20.5001 29.9993V26.666H19.6667" stroke="#001AFF" stroke-width="2" stroke-linecap="round" stroke-linejoin="round"/>
</svg>
