<svg width="24" height="25" viewBox="0 0 24 25" fill="none" xmlns="http://www.w3.org/2000/svg">
<path d="M13.832 17.445C14.0385 17.5398 14.2712 17.5615 14.4917 17.5064C14.7122 17.4513 14.9073 17.3228 15.045 17.142L15.4 16.677C15.5863 16.4286 15.8279 16.227 16.1056 16.0881C16.3833 15.9492 16.6895 15.877 17 15.877H20C20.5304 15.877 21.0391 16.0877 21.4142 16.4627C21.7893 16.8378 22 17.3465 22 17.877V20.877C22 21.4074 21.7893 21.9161 21.4142 22.2912C21.0391 22.6662 20.5304 22.877 20 22.877C15.2261 22.877 10.6477 20.9805 7.27208 17.6049C3.89642 14.2292 2 9.65085 2 4.87695C2 4.34652 2.21071 3.83781 2.58579 3.46274C2.96086 3.08767 3.46957 2.87695 4 2.87695H7C7.53043 2.87695 8.03914 3.08767 8.41421 3.46274C8.78929 3.83781 9 4.34652 9 4.87695V7.87695C9 8.18744 8.92771 8.49367 8.78886 8.77138C8.65 9.04909 8.44839 9.29066 8.2 9.47696L7.732 9.82795C7.54842 9.96813 7.41902 10.1675 7.36579 10.3923C7.31256 10.6171 7.33878 10.8533 7.44 11.061C8.80668 13.8368 11.0544 16.0818 13.832 17.445Z" stroke="#01FFA6" stroke-width="2" stroke-linecap="round" stroke-linejoin="round"/>
</svg>
