<svg width="41" height="40" viewBox="0 0 41 40" fill="none" xmlns="http://www.w3.org/2000/svg">
<path d="M30.3333 19.9997H33.6667M30.3333 26.6663H33.6667M30.3333 33.333H33.6667M30.3333 33.333C30.3333 34.2171 29.9821 35.0649 29.357 35.69C28.7319 36.3152 27.8841 36.6663 27 36.6663H13.6667C12.7826 36.6663 11.9348 36.3152 11.3096 35.69C10.6845 35.0649 10.3333 34.2171 10.3333 33.333M30.3333 33.333V6.66634M30.3333 6.66634H33.6667M30.3333 6.66634C30.3333 5.78229 29.9821 4.93444 29.357 4.30932C28.7319 3.6842 27.8841 3.33301 27 3.33301H24.5C24.04 3.33301 23.6767 3.71134 23.5633 4.15801C23.3803 4.87576 22.9635 5.51212 22.3786 5.9666C21.7937 6.42109 21.0741 6.6678 20.3333 6.6678C19.5926 6.6678 18.873 6.42109 18.2881 5.9666C17.7032 5.51212 17.2863 4.87576 17.1033 4.15801C16.99 3.71134 16.6267 3.33301 16.1667 3.33301H13.6667C12.7826 3.33301 11.9348 3.6842 11.3096 4.30932C10.6845 4.93444 10.3333 5.78229 10.3333 6.66634M30.3333 13.333H33.6667M7 19.9997H10.3333M7 26.6663H10.3333M7 33.333H10.3333M10.3333 33.333V6.66634M7 6.66634H10.3333M7 13.333H10.3333" stroke="#001AFF" stroke-width="2" stroke-linecap="round" stroke-linejoin="round"/>
</svg>
