<svg width="24" height="25" viewBox="0 0 24 25" fill="none" xmlns="http://www.w3.org/2000/svg">
<path d="M20 10.877C20 15.87 14.461 21.07 12.601 22.676C12.4277 22.8062 12.2168 22.8767 12 22.8767C11.7832 22.8767 11.5723 22.8062 11.399 22.676C9.539 21.07 4 15.87 4 10.877C4 8.75522 4.84285 6.72039 6.34315 5.2201C7.84344 3.71981 9.87827 2.87695 12 2.87695C14.1217 2.87695 16.1566 3.71981 17.6569 5.2201C19.1571 6.72039 20 8.75522 20 10.877Z" stroke="#01FFA6" stroke-width="2" stroke-linecap="round" stroke-linejoin="round"/>
<path d="M12 13.877C13.6569 13.877 15 12.5338 15 10.877C15 9.2201 13.6569 7.87695 12 7.87695C10.3431 7.87695 9 9.2201 9 10.877C9 12.5338 10.3431 13.877 12 13.877Z" stroke="#01FFA6" stroke-width="2" stroke-linecap="round" stroke-linejoin="round"/>
</svg>
