<svg width="40" height="40" viewBox="0 0 40 40" fill="none" xmlns="http://www.w3.org/2000/svg">
<path d="M31.6667 5H8.33333C6.49238 5 5 6.49238 5 8.33333V31.6667C5 33.5076 6.49238 35 8.33333 35H31.6667C33.5076 35 35 33.5076 35 31.6667V8.33333C35 6.49238 33.5076 5 31.6667 5Z" stroke="#001AFF" stroke-width="2" stroke-linecap="round" stroke-linejoin="round"/>
<path d="M18.3333 15H24.9999C25.884 15 26.7318 14.6488 27.3569 14.0237C27.9821 13.3986 28.3333 12.5507 28.3333 11.6667V5" stroke="#001AFF" stroke-width="2" stroke-linecap="round" stroke-linejoin="round"/>
<path d="M15.0001 18.3337C16.841 18.3337 18.3334 16.8413 18.3334 15.0003C18.3334 13.1594 16.841 11.667 15.0001 11.667C13.1591 11.667 11.6667 13.1594 11.6667 15.0003C11.6667 16.8413 13.1591 18.3337 15.0001 18.3337Z" stroke="#001AFF" stroke-width="2" stroke-linecap="round" stroke-linejoin="round"/>
<path d="M11.6667 35V28.3333C11.6667 27.4493 12.0179 26.6014 12.6431 25.9763C13.2682 25.3512 14.116 25 15.0001 25H21.6667" stroke="#001AFF" stroke-width="2" stroke-linecap="round" stroke-linejoin="round"/>
<path d="M25.0001 28.3337C26.841 28.3337 28.3334 26.8413 28.3334 25.0003C28.3334 23.1594 26.841 21.667 25.0001 21.667C23.1591 21.667 21.6667 23.1594 21.6667 25.0003C21.6667 26.8413 23.1591 28.3337 25.0001 28.3337Z" stroke="#001AFF" stroke-width="2" stroke-linecap="round" stroke-linejoin="round"/>
</svg>
