<svg width="41" height="40" viewBox="0 0 41 40" fill="none" xmlns="http://www.w3.org/2000/svg">
<path d="M33.9997 21.6671C33.9997 30.0004 28.1663 34.1671 21.233 36.5838C20.8699 36.7068 20.4756 36.7009 20.1163 36.5671C13.1663 34.1671 7.33301 30.0004 7.33301 21.6671V10.0004C7.33301 9.5584 7.5086 9.13447 7.82116 8.82191C8.13372 8.50935 8.55765 8.33376 8.99967 8.33376C12.333 8.33376 16.4997 6.33376 19.3997 3.80042C19.7528 3.49875 20.2019 3.33301 20.6663 3.33301C21.1308 3.33301 21.5799 3.49875 21.933 3.80042C24.8497 6.35042 28.9997 8.33376 32.333 8.33376C32.775 8.33376 33.199 8.50935 33.5115 8.82191C33.8241 9.13447 33.9997 9.5584 33.9997 10.0004V21.6671Z" stroke="#001AFF" stroke-width="2" stroke-linecap="round" stroke-linejoin="round"/>
<path d="M15.6665 20.0003L18.9998 23.3337L25.6665 16.667" stroke="#001AFF" stroke-width="2" stroke-linecap="round" stroke-linejoin="round"/>
</svg>
