<svg width="124" height="22" viewBox="0 0 124 22" fill="none" xmlns="http://www.w3.org/2000/svg">
<g clip-path="url(#clip0_60_2008)">
<path d="M2.10059 19.527H11.4084V21.4715H1.78738C0.806366 21.4715 0.0144653 20.6796 0.0144653 19.6984V2.23911H2.10059V19.527Z" fill="white"/>
<path d="M26.3777 7.71214V21.4715H24.2915V19.2138H24.0374C23.3578 20.7623 21.7267 21.7493 19.7529 21.7493H19.6406C16.5085 21.7493 14.8774 19.8048 14.8774 16.0222V7.70032H16.9635V15.9335C16.9635 18.7528 18.0923 19.7989 20.0957 19.7989H20.2079C22.3768 19.7989 24.2975 18.5873 24.2975 15.6794V7.70032H26.3836L26.3777 7.71214Z" fill="white"/>
<path d="M36.3592 21.7552C32.7779 21.7552 30.3785 19.7221 30.3785 15.242V13.9476C30.3785 9.43798 32.8015 7.43435 36.3592 7.43435H36.501C39.6568 7.43435 42.0266 9.01243 42.3102 12.4286H40.2241C39.97 10.2004 38.5339 9.32568 36.501 9.32568H36.3592C33.9598 9.32568 32.441 10.5964 32.441 13.9535V15.2479C32.441 18.605 33.9657 19.8757 36.3592 19.8757H36.501C38.5044 19.8757 39.9996 19.001 40.2241 16.7728H42.3102C42.0266 20.1831 39.6627 21.7671 36.501 21.7671H36.3592V21.7552Z" fill="white"/>
<path d="M57.7937 19.5861V21.4775H53.5091C51.3935 21.4775 50.2647 20.0944 50.2647 18.0672V9.60938H44.8219V7.71805H52.3508V18.8C52.3508 19.3674 52.5754 19.592 53.0541 19.592H57.7937V19.5861ZM50.1583 5.30661L48.4859 3.63397C48.2554 3.40346 48.2554 3.03111 48.4859 2.8006L50.1583 1.12796C50.3888 0.897452 50.7611 0.897452 50.9916 1.12796L52.6641 2.8006C52.8945 3.03111 52.8945 3.40346 52.6641 3.63397L50.9916 5.30661C50.7611 5.53711 50.3888 5.53711 50.1583 5.30661Z" fill="white"/>
<path d="M66.5932 21.7552C63.6325 21.7552 61.375 19.6984 61.375 15.242V13.9181C61.375 9.46162 63.6325 7.43435 66.5046 7.43435H66.6169C68.703 7.43435 70.1391 8.50413 70.8187 9.96991H71.1023V2.24502H73.1885V21.4775H71.1319V19.1369H70.8482C70.1686 20.6618 68.7621 21.7612 66.676 21.7612H66.5932V21.7552ZM67.2138 19.8107C69.2703 19.8107 71.1023 18.6286 71.1023 15.1297V13.9713C71.1023 10.6141 69.2703 9.37296 67.2138 9.37296H67.1015C64.9858 9.37296 63.467 10.555 63.467 13.9713V15.1297C63.467 18.5695 64.9917 19.8107 67.1015 19.8107H67.2138Z" fill="white"/>
<path d="M88.2819 11.6898C90.4803 12.2277 91.6386 13.6344 91.6386 16.0635V16.2881C91.6386 19.5861 89.6943 21.4775 86.1425 21.4775H79.3168V2.83015C79.3168 2.50508 79.5828 2.23911 79.9078 2.23911H85.4097C89.0206 2.23911 90.9353 4.07133 90.9353 7.11519V7.42253C90.9353 9.45571 90.0311 10.7796 88.2819 11.4298V11.6898ZM88.8433 7.2925C88.8433 5.20613 87.8564 4.18954 85.4038 4.18954H81.3734V10.7324H85.4038C87.8564 10.7324 88.8433 9.71576 88.8433 7.5171V7.2925ZM89.5465 15.9453C89.5465 13.6876 88.5005 12.671 86.1071 12.671H81.3675V19.5211H86.1071C88.5064 19.5211 89.5465 18.5045 89.5465 16.1345V15.9394V15.9453Z" fill="white"/>
<path d="M101.224 21.7552C97.6428 21.7552 95.2435 19.7221 95.2435 15.242V13.9476C95.2435 9.43798 97.6665 7.43435 101.224 7.43435H101.366C104.947 7.43435 107.347 9.46753 107.347 13.9476V15.242C107.347 19.7516 104.924 21.7552 101.366 21.7552H101.224ZM101.366 19.8698C103.765 19.8698 105.284 18.5991 105.284 15.242V13.9476C105.284 10.5905 103.759 9.31977 101.366 9.31977H101.224C98.8248 9.31977 97.306 10.5905 97.306 13.9476V15.242C97.306 18.5991 98.8307 19.8698 101.224 19.8698H101.366Z" fill="white"/>
<path d="M109.941 21.4775L115.242 14.2313L110.307 7.71805H112.707L116.371 12.736H116.654L120.318 7.71805H122.718L117.783 14.2313L123.084 21.4775H120.714L116.654 15.7503H116.371L112.281 21.4775H109.941Z" fill="white"/>
</g>
<defs>
<clipPath id="clip0_60_2008">
<rect width="123.261" height="21" fill="white" transform="translate(0 0.876953)"/>
</clipPath>
</defs>
</svg>
